# xmcd
#
# Track frame offsets:
#	152
#	13015
#	27792
#	42502
#	55042
#	69817
#	80592
#	96117
#	110750
#	119722
#
# Disc length: 1852 seconds
#
# Revision: 0
# Processed by: cddbd v1.5.2PL0 Copyright (c) Steve Scherf et al.
# Submitted via: EasyCDDAExtractor 15.3.0.1
#
DISCID=80073a0a
DTITLE=Louvin Charlie - And That's The Gospel
DYEAR=1900
DGENRE=
TTITLE0=Louvin Charlie and Jim and Jesse - I Feel Like Travleing On
TTITLE1=Louvin Charlie and Tammy Wynette - If I Could Hear My Mother Pray Again
TTITLE2=Louvin Charlie - In The Cross
TTITLE3=Louvin Charlie and Grant Turner - I See A Bridge
TTITLE4=Louvin Charlie - Where The Roses Never Fade
TTITLE5=Louvin Charlie - In The Sweet Bye And Bye
TTITLE6=Louvin Charlie and John Conley - When They Ring Those Golden Bells
TTITLE7=Louvin Charlie and Charles Whitstein - Nearer My God To Thee
TTITLE8=Louvin Charlie and Little Jimmy Dickens - I've Known A Lady
TTITLE9=Louvin Charlie - Sweet Beaulah Land
EXTD=
EXTT0=
EXTT1=
EXTT2=
EXTT3=
EXTT4=
EXTT5=
EXTT6=
EXTT7=
EXTT8=
EXTT9=
PLAYORDER=
